# xmcd
#
# Track frame offsets:
#	150
#	18170
#	33632
#	47936
#	66298
#	83038
#	100834
#	122996
#	141595
#	160361
#	173254
#	192085
#	211443
#	227228
#	250281
#	269576
#	282652
#	300557
#	315030
#
# Disc length: 4449 seconds
#
# Revision: 0
# Processed by: cddbd v1.5.2PL0 Copyright (c) Steve Scherf et al.
# Submitted via: EasyCDDAExtractor 16.0.8.1
#
DISCID=12115f13
DTITLE=Nu Urban Traxx Volume 205 US
DYEAR=2014
DGENRE=
TTITLE0=Juicy J ft. Chris Brown, Lil Bibby and Young Thug\n - Low\n
TTITLE1=Nicki Minaj\n - Anaconda\n
TTITLE2=Wiz Khalifa ft. Snoop Dogg and Ty Dolla $ign\n - You and Your Friends\n
TTITLE3=Lupe Fiasco ft. Jennifer Hudson and Common\n - Remission\n
TTITLE4=Trey Songz ft. Nicki Minaj\n - Touchin, Lovin\n
TTITLE5=Tinashe ft. A$AP Rocky\n - Pretend\n
TTITLE6=DJ Khaled ft. Chris Brown, Future, Jeremih and August Alsina\n - Hold 
TTITLE6=You Down\n
TTITLE7=Kirko Bangz ft. August Alsina\n - Rich\n
TTITLE8=YG ft. TeeFLii\n - Do It To Ya\n
TTITLE9=Fifth Harmony\n - Bo$$\n
TTITLE10=Ray J ft. Migos and Dria\n - ATM\n
TTITLE11=Jennifer Hudson ft. R. Kelly\n - It's Your World\n
TTITLE12=French Montana\n - Don't Panic\n
TTITLE13=Lil Wayne ft. Drake\n - Grindin'\n
TTITLE14=Disclosure ft. Sam Smith\n - Latch\n
TTITLE15=DJ Spinking ft. Tyga, A$AP Ferg, Jeremih and Velous\n - Adult Swim\n
TTITLE16=Rowdy Rebel ft. Bobby Shmurda\n - Computers\n
TTITLE17=Trevor Jackson ft. Kirko Bangz\n - Me Likey\n
TTITLE18=Morgan Green\n - Call My Name\n
EXTD=
EXTT0=
EXTT1=
EXTT2=
EXTT3=
EXTT4=
EXTT5=
EXTT6=
EXTT7=
EXTT8=
EXTT9=
EXTT10=
EXTT11=
EXTT12=
EXTT13=
EXTT14=
EXTT15=
EXTT16=
EXTT17=
EXTT18=
PLAYORDER=
